<svg width="24" height="24" viewBox="0 0 24 24" fill="none" xmlns="http://www.w3.org/2000/svg">
<path d="M13.8 8.2C13.6778 8.32462 13.6094 8.49216 13.6094 8.66666C13.6094 8.84116 13.6778 9.00871 13.8 9.13333L14.8667 10.2C14.9913 10.3221 15.1588 10.3906 15.3333 10.3906C15.5078 10.3906 15.6754 10.3221 15.8 10.2L18.3133 7.68666C18.6486 8.42746 18.7501 9.25282 18.6043 10.0528C18.4586 10.8527 18.0725 11.5892 17.4975 12.1642C16.9226 12.7391 16.186 13.1252 15.3861 13.271C14.5862 13.4167 13.7608 13.3152 13.02 12.98L8.41333 17.5867C8.14812 17.8519 7.78841 18.0009 7.41333 18.0009C7.03826 18.0009 6.67855 17.8519 6.41333 17.5867C6.14812 17.3214 5.99912 16.9617 5.99912 16.5867C5.99912 16.2116 6.14812 15.8519 6.41333 15.5867L11.02 10.98C10.6848 10.2392 10.5833 9.41384 10.729 8.6139C10.8748 7.81396 11.2609 7.07743 11.8358 6.50248C12.4108 5.92752 13.1473 5.54144 13.9472 5.39569C14.7472 5.24994 15.5725 5.35144 16.3133 5.68666L13.8 8.2Z" stroke="#49454F" stroke-width="1.6" stroke-linecap="round" stroke-linejoin="round"/>
</svg>
